<svg style="position: absolute; width: 0; height: 0; overflow: hidden;" version="1.1" xmlns="http://www.w3.org/2000/svg" xmlns:xlink="http://www.w3.org/1999/xlink">
<defs>
<symbol id="icon-menu" viewBox="0 0 20 20">
<title>menu</title>
<path d='M3 18h18v-2H3v2zm0-5h18v-2H3v2zm0-7v2h18V6H3z' />
</symbol>
<symbol id="icon-search" viewBox="0 0 20 20">
<title>search</title>
<path d="M12.9 14.32a8 8 0 1 1 1.41-1.41l5.35 5.33-1.42 1.42-5.33-5.34zM8 14A6 6 0 1 0 8 2a6 6 0 0 0 0 12z"/>
</symbol>
<symbol id="icon-user" viewBox="0 0 20 20">
<title>user</title>
<path d="M5 5a5 5 0 0 1 10 0v2A5 5 0 0 1 5 7V5zM0 16.68A19.9 19.9 0 0 1 10 14c3.64 0 7.06.97 10 2.68V20H0v-3.32z"/>
</symbol>
</defs>
</svg>